G04 #@! TF.FileFunction,Soldermask,Top*
%FSLAX46Y46*%
G04 Gerber Fmt 4.6, Leading zero omitted, Abs format (unit mm)*
G04 Created by KiCad (PCBNEW 4.0.6) date Monday, 03 July 2017 'AMt' 11:17:00*
%MOMM*%
%LPD*%
G01*
G04 APERTURE LIST*
%ADD10C,0.101600*%
%ADD11C,0.076200*%
%ADD12C,0.150000*%
%ADD13C,0.127000*%
%ADD14R,0.390000X1.440000*%
%ADD15R,1.440000X0.390000*%
%ADD16R,2.100000X2.100000*%
%ADD17O,2.100000X2.100000*%
%ADD18R,2.400000X1.400000*%
%ADD19R,1.900000X1.650000*%
%ADD20R,1.650000X1.900000*%
%ADD21R,1.598880X1.598880*%
%ADD22R,2.340000X1.190000*%
%ADD23R,2.140000X1.140000*%
%ADD24C,1.900000*%
G04 APERTURE END LIST*
D10*
X144410000Y-89820000D02*
X144570000Y-89300000D01*
X144450000Y-89600000D02*
X144410000Y-89820000D01*
X144330000Y-89320000D02*
X144450000Y-89600000D01*
X144110000Y-89020000D02*
X144330000Y-89320000D01*
X144020000Y-88590000D02*
X144110000Y-89020000D01*
X144390000Y-88600000D02*
X144390000Y-88430000D01*
X144410000Y-88700000D02*
X144390000Y-88600000D01*
X144360000Y-88790000D02*
X144410000Y-88700000D01*
X144240000Y-88820000D02*
X144360000Y-88790000D01*
X144120000Y-88690000D02*
X144240000Y-88820000D01*
X144050000Y-88500000D02*
X144120000Y-88690000D01*
X144570000Y-88500000D02*
X144480000Y-88370000D01*
X144700000Y-88530000D02*
X144570000Y-88500000D01*
X144810000Y-88490000D02*
X144700000Y-88530000D01*
X144850000Y-88390000D02*
X144810000Y-88490000D01*
X144850000Y-88250000D02*
X144850000Y-88390000D01*
X144750000Y-88110000D02*
X144850000Y-88250000D01*
X144570000Y-88000000D02*
X144750000Y-88110000D01*
X144670000Y-87970000D02*
X144570000Y-87970000D01*
X144820000Y-87960000D02*
X144670000Y-87970000D01*
X144920000Y-87890000D02*
X144820000Y-87960000D01*
X144900000Y-87740000D02*
X144920000Y-87890000D01*
X144790000Y-87640000D02*
X144900000Y-87740000D01*
X144420000Y-87650000D02*
X144790000Y-87640000D01*
X144540000Y-87520000D02*
X144450000Y-87660000D01*
X144560000Y-87410000D02*
X144540000Y-87520000D01*
X144510000Y-87300000D02*
X144560000Y-87410000D01*
X144340000Y-87270000D02*
X144510000Y-87300000D01*
X144180000Y-87330000D02*
X144340000Y-87270000D01*
X144090000Y-87600000D02*
X144180000Y-87330000D01*
X143990000Y-88510000D02*
X143980000Y-88480000D01*
X144020000Y-88490000D02*
X143990000Y-88510000D01*
X144000000Y-88510000D02*
X144020000Y-88490000D01*
X143980000Y-88620000D02*
X144000000Y-88510000D01*
X143920000Y-88730000D02*
X143980000Y-88620000D01*
X143800000Y-88770000D02*
X143920000Y-88730000D01*
X143690000Y-88730000D02*
X143800000Y-88770000D01*
X143680000Y-88540000D02*
X143690000Y-88730000D01*
X143760000Y-88340000D02*
X143680000Y-88540000D01*
X143490000Y-88380000D02*
X143740000Y-88320000D01*
X143370000Y-88300000D02*
X143490000Y-88380000D01*
X143330000Y-88170000D02*
X143370000Y-88300000D01*
X143420000Y-88020000D02*
X143330000Y-88170000D01*
X143690000Y-87970000D02*
X143420000Y-88020000D01*
X143470000Y-87850000D02*
X143680000Y-87900000D01*
X143360000Y-87680000D02*
X143470000Y-87850000D01*
X143470000Y-87490000D02*
X143360000Y-87680000D01*
X143750000Y-87420000D02*
X143470000Y-87490000D01*
X144020000Y-87560000D02*
X143750000Y-87420000D01*
D11*
X144190000Y-88230000D02*
X144310000Y-88140000D01*
X144060000Y-88240000D02*
X144190000Y-88230000D01*
X143940000Y-88170000D02*
X144060000Y-88240000D01*
D12*
X144021623Y-87950000D02*
G75*
G03X144021623Y-87950000I-31623J0D01*
G01*
D13*
X144540000Y-88030000D02*
G75*
G03X144540000Y-88030000I-410000J0D01*
G01*
D12*
X144301623Y-87950000D02*
G75*
G03X144301623Y-87950000I-31623J0D01*
G01*
D14*
X147110000Y-83090000D03*
X147610000Y-83090000D03*
X148110000Y-83090000D03*
X148610000Y-83090000D03*
X149110000Y-83090000D03*
X149610000Y-83090000D03*
X150110000Y-83090000D03*
X150610000Y-83090000D03*
X151110000Y-83090000D03*
X151610000Y-83090000D03*
X152110000Y-83090000D03*
X152610000Y-83090000D03*
D15*
X154210000Y-81490000D03*
X154210000Y-80990000D03*
X154210000Y-80490000D03*
X154210000Y-79990000D03*
X154210000Y-79490000D03*
X154210000Y-78990000D03*
X154210000Y-78490000D03*
X154210000Y-77990000D03*
X154210000Y-77490000D03*
X154210000Y-76990000D03*
X154210000Y-76490000D03*
X154210000Y-75990000D03*
D14*
X152610000Y-74390000D03*
X152110000Y-74390000D03*
X151610000Y-74390000D03*
X151110000Y-74390000D03*
X150610000Y-74390000D03*
X150110000Y-74390000D03*
X149610000Y-74390000D03*
X149110000Y-74390000D03*
X148610000Y-74390000D03*
X148110000Y-74390000D03*
X147610000Y-74390000D03*
X147110000Y-74390000D03*
D15*
X145510000Y-75990000D03*
X145510000Y-76490000D03*
X145510000Y-76990000D03*
X145510000Y-77490000D03*
X145510000Y-77990000D03*
X145510000Y-78490000D03*
X145510000Y-78990000D03*
X145510000Y-79490000D03*
X145510000Y-79990000D03*
X145510000Y-80490000D03*
X145510000Y-80990000D03*
X145510000Y-81490000D03*
D16*
X142240000Y-93980000D03*
D17*
X144780000Y-93980000D03*
X147320000Y-93980000D03*
X149860000Y-93980000D03*
X152400000Y-93980000D03*
X154940000Y-93980000D03*
D18*
X158115000Y-69850000D03*
X158115000Y-67850000D03*
X158115000Y-65850000D03*
X158115000Y-63850000D03*
X158115000Y-61850000D03*
X158115000Y-59850000D03*
X158115000Y-57850000D03*
X158115000Y-55850000D03*
X142115000Y-55850000D03*
X142115000Y-57850000D03*
X142115000Y-59850000D03*
X142115000Y-61850000D03*
X142115000Y-63850000D03*
X142115000Y-65850000D03*
X142115000Y-67850000D03*
X142115000Y-69850000D03*
D19*
X154550000Y-74200000D03*
X157050000Y-74200000D03*
X145014000Y-83058000D03*
X142514000Y-83058000D03*
D20*
X151003000Y-86233000D03*
X151003000Y-88733000D03*
D21*
X158970980Y-93980000D03*
X161069020Y-93980000D03*
D20*
X138176000Y-63734000D03*
X138176000Y-61234000D03*
X139827000Y-63734000D03*
X139827000Y-61234000D03*
D16*
X137160000Y-83820000D03*
D17*
X137160000Y-81280000D03*
D22*
X137795000Y-57355000D03*
X137795000Y-54405000D03*
D23*
X139827000Y-55880000D03*
D16*
X154940000Y-53340000D03*
X161290000Y-55880000D03*
X161290000Y-73660000D03*
X161290000Y-76200000D03*
X161290000Y-78740000D03*
X161290000Y-88900000D03*
D17*
X161290000Y-91440000D03*
D16*
X147320000Y-53340000D03*
X161290000Y-83820000D03*
D24*
X155800000Y-83350000D03*
X155750000Y-85900000D03*
X147650000Y-85600000D03*
D16*
X137160000Y-91440000D03*
D17*
X137160000Y-73660000D03*
D16*
X137160000Y-88900000D03*
D17*
X137160000Y-76200000D03*
D16*
X152400000Y-53340000D03*
D19*
X139100000Y-86400000D03*
X141600000Y-86400000D03*
D16*
X161290000Y-81280000D03*
X161290000Y-86360000D03*
X161290000Y-53340000D03*
M02*
