M48
;DRILL file {KiCad 4.0.6} date Monday, 03 July 2017 'AMt' 11:17:05
;FORMAT={-:-/ absolute / inch / decimal}
FMAT,2
INCH,TZ
T1C0.016
T2C0.039
%
G90
G05
M72
T1
X5.503Y-2.6909
X5.5059Y-2.5984
X5.5443Y-3.2904
X5.56Y-3.63
X5.5906Y-3.0915
X5.6654Y-3.1181
X5.7283Y-3.5827
X5.75Y-2.88
X5.75Y-2.9252
X5.8012Y-2.3622
X5.8012Y-3.1565
X5.8031Y-2.6496
X5.8474Y-3.0285
X5.8898Y-2.9941
X5.8967Y-3.1978
X5.94Y-3.
X5.94Y-3.05
X6.0157Y-3.0945
X6.0157Y-3.1732
X6.0236Y-3.3366
X6.0591Y-2.2835
X6.1102Y-3.6063
X6.1181Y-2.2835
X6.1339Y-2.6693
X6.1732Y-3.4528
X6.185Y-2.8543
X6.189Y-3.622
X6.2205Y-3.2283
T2
X5.4Y-2.9
X5.4Y-3.
X5.4Y-3.2
X5.4Y-3.3
X5.4Y-3.5
X5.4Y-3.6
X5.6Y-3.7
X5.7Y-3.7
X5.8Y-2.1
X5.8Y-3.7
X5.9Y-3.7
X6.Y-2.1
X6.Y-3.7
X6.1Y-2.1
X6.1Y-3.7
X6.35Y-2.1
X6.35Y-2.2
X6.35Y-2.9
X6.35Y-3.
X6.35Y-3.1
X6.35Y-3.2
X6.35Y-3.3
X6.35Y-3.4
X6.35Y-3.5
X6.35Y-3.6
T0
M30
