G04 #@! TF.FileFunction,Copper,L2,Bot,Signal*
%FSLAX46Y46*%
G04 Gerber Fmt 4.6, Leading zero omitted, Abs format (unit mm)*
G04 Created by KiCad (PCBNEW 4.0.6) date Monday, 03 July 2017 'AMt' 11:17:00*
%MOMM*%
%LPD*%
G01*
G04 APERTURE LIST*
%ADD10C,0.101600*%
%ADD11R,1.100000X0.250000*%
%ADD12R,1.700000X1.700000*%
%ADD13O,1.700000X1.700000*%
%ADD14R,1.500000X1.300000*%
%ADD15R,1.500000X1.250000*%
%ADD16R,1.250000X1.500000*%
%ADD17R,1.300000X1.500000*%
%ADD18R,0.650000X1.560000*%
%ADD19R,1.000000X1.000000*%
%ADD20R,1.000000X2.200000*%
%ADD21C,0.762000*%
%ADD22C,0.254000*%
%ADD23C,0.500000*%
%ADD24C,1.000000*%
%ADD25C,0.700000*%
G04 APERTURE END LIST*
D10*
D11*
X145170000Y-69326000D03*
X145170000Y-68826000D03*
X145170000Y-68326000D03*
X145170000Y-67826000D03*
X145170000Y-67326000D03*
X149470000Y-67326000D03*
X149470000Y-67826000D03*
X149470000Y-68326000D03*
X149470000Y-68826000D03*
X149470000Y-69326000D03*
D12*
X142240000Y-93980000D03*
D13*
X144780000Y-93980000D03*
X147320000Y-93980000D03*
X149860000Y-93980000D03*
X152400000Y-93980000D03*
X154940000Y-93980000D03*
D14*
X160950000Y-93980000D03*
X158250000Y-93980000D03*
D15*
X141498000Y-85344000D03*
X143998000Y-85344000D03*
D16*
X139700000Y-90190000D03*
X139700000Y-92690000D03*
D15*
X148570000Y-71120000D03*
X146070000Y-71120000D03*
D17*
X144375000Y-75850000D03*
X144375000Y-73150000D03*
D14*
X154766000Y-70104000D03*
X152066000Y-70104000D03*
X154766000Y-72263000D03*
X152066000Y-72263000D03*
D18*
X141290000Y-87550000D03*
X142240000Y-87550000D03*
X143190000Y-87550000D03*
X143190000Y-90250000D03*
X141290000Y-90250000D03*
D12*
X137160000Y-83820000D03*
D13*
X137160000Y-81280000D03*
D14*
X145970000Y-65278000D03*
X148670000Y-65278000D03*
X148670000Y-63246000D03*
X145970000Y-63246000D03*
X151558000Y-65278000D03*
X154258000Y-65278000D03*
X151558000Y-63246000D03*
X154258000Y-63246000D03*
D12*
X154940000Y-53340000D03*
X161290000Y-55880000D03*
D19*
X139319000Y-87610000D03*
X139319000Y-85110000D03*
D12*
X161290000Y-73660000D03*
X161290000Y-76200000D03*
X161290000Y-78740000D03*
X161290000Y-88900000D03*
D13*
X161290000Y-91440000D03*
D12*
X147320000Y-53340000D03*
X161290000Y-83820000D03*
X137160000Y-91440000D03*
D13*
X137160000Y-73660000D03*
D12*
X137160000Y-88900000D03*
D13*
X137160000Y-76200000D03*
D12*
X152400000Y-53340000D03*
D17*
X146350000Y-75875000D03*
X146350000Y-78575000D03*
D12*
X161290000Y-81280000D03*
D17*
X154800000Y-75850000D03*
X154800000Y-78550000D03*
D12*
X161290000Y-86360000D03*
X161290000Y-53340000D03*
D20*
X139065000Y-76504800D03*
X139065000Y-80486000D03*
X140360400Y-80486000D03*
X140360400Y-76504800D03*
D21*
X139775000Y-68350002D03*
X155200000Y-91600000D03*
X140825000Y-83575000D03*
X157099994Y-72500000D03*
X145499996Y-91000000D03*
X158000000Y-82000000D03*
X155800000Y-67800000D03*
X146050000Y-73152000D03*
X141224000Y-92202000D03*
X148524998Y-76925000D03*
X149600000Y-76050000D03*
X149775000Y-81225000D03*
X157200000Y-92000000D03*
X147400000Y-67300000D03*
X147350000Y-60000000D03*
X139850000Y-66000000D03*
X146050000Y-74300000D03*
X150876000Y-77470010D03*
X150876000Y-76200000D03*
X147350000Y-80175000D03*
X142000004Y-78525000D03*
X156800000Y-87699996D03*
X155400006Y-58000000D03*
X152800000Y-80600000D03*
X153000000Y-84750000D03*
X143900000Y-79200000D03*
X153900000Y-58000000D03*
X152800000Y-78600000D03*
D22*
X139394001Y-68731001D02*
X139775000Y-68350002D01*
X137160000Y-70965002D02*
X139394001Y-68731001D01*
X137160000Y-73914000D02*
X137160000Y-70965002D01*
X143584000Y-65532000D02*
X143584000Y-64066000D01*
X143584000Y-64066000D02*
X144404000Y-63246000D01*
X144404000Y-63246000D02*
X145970000Y-63246000D01*
X154258000Y-63246000D02*
X155471000Y-63246000D01*
X155471000Y-63246000D02*
X155800000Y-63575000D01*
X155800000Y-63575000D02*
X155800000Y-67261185D01*
X155800000Y-67261185D02*
X155800000Y-67800000D01*
X145970000Y-63246000D02*
X145970000Y-62342000D01*
X145970000Y-62342000D02*
X147098000Y-61214000D01*
X147098000Y-61214000D02*
X154258000Y-61214000D01*
X154258000Y-61214000D02*
X154258000Y-63246000D01*
X158000000Y-82000000D02*
X158000000Y-82950000D01*
X158000000Y-82950000D02*
X158870000Y-83820000D01*
X158870000Y-83820000D02*
X161290000Y-83820000D01*
X154258000Y-63246000D02*
X154258000Y-61192000D01*
X154258000Y-61192000D02*
X159570000Y-55880000D01*
X159570000Y-55880000D02*
X161290000Y-55880000D01*
X144375000Y-73150000D02*
X146048000Y-73150000D01*
X146048000Y-73150000D02*
X146050000Y-73152000D01*
X142104000Y-83575000D02*
X141363815Y-83575000D01*
X141363815Y-83575000D02*
X140825000Y-83575000D01*
X143998000Y-85344000D02*
X143873000Y-85344000D01*
X143873000Y-85344000D02*
X142104000Y-83575000D01*
X157480993Y-72880999D02*
X157099994Y-72500000D01*
X157099994Y-71961185D02*
X157099994Y-72500000D01*
X155800000Y-67800000D02*
X157099994Y-69099994D01*
X158000000Y-82000000D02*
X158000000Y-73400006D01*
X157099994Y-69099994D02*
X157099994Y-71961185D01*
X158000000Y-73400006D02*
X157480993Y-72880999D01*
D23*
X139065000Y-76504800D02*
X137464800Y-76504800D01*
X137464800Y-76504800D02*
X137160000Y-76200000D01*
D24*
X137160000Y-73660000D02*
X137160000Y-76200000D01*
D22*
X143998000Y-89498004D02*
X145118997Y-90619001D01*
X143998000Y-85344000D02*
X143998000Y-89498004D01*
X145118997Y-90619001D02*
X145499996Y-91000000D01*
D23*
X143998000Y-87250000D02*
X143998000Y-86469000D01*
X143998000Y-88662762D02*
X143998000Y-87250000D01*
D22*
X145170000Y-69326000D02*
X145974000Y-69326000D01*
X145974000Y-69326000D02*
X146050201Y-69249799D01*
X146050201Y-69249799D02*
X146050201Y-68249799D01*
X146050000Y-73152000D02*
X146050000Y-71140000D01*
X146050000Y-71140000D02*
X146070000Y-71120000D01*
X145170000Y-68326000D02*
X145974000Y-68326000D01*
X145974000Y-68326000D02*
X146050201Y-68249799D01*
X146050201Y-68249799D02*
X146050201Y-66936839D01*
X146050201Y-66936839D02*
X145661362Y-66548000D01*
X145661362Y-66548000D02*
X144600000Y-66548000D01*
X144600000Y-66548000D02*
X144310201Y-66258201D01*
X144310201Y-66258201D02*
X143584000Y-65532000D01*
X137160000Y-71956000D02*
X143584000Y-65532000D01*
X144165000Y-85344000D02*
X143998000Y-85344000D01*
X146050000Y-71394000D02*
X146070000Y-71374000D01*
X146049994Y-73151994D02*
X146050000Y-73152000D01*
X145595000Y-69326000D02*
X145170000Y-69326000D01*
X141224000Y-92202000D02*
X140188000Y-92202000D01*
X140188000Y-92202000D02*
X139700000Y-92690000D01*
X137160000Y-73914000D02*
X137160000Y-71956000D01*
X137160000Y-76200000D02*
X137160000Y-73914000D01*
D23*
X142240000Y-87550000D02*
X142240000Y-88520762D01*
X142240000Y-88520762D02*
X142619238Y-88900000D01*
X142619238Y-88900000D02*
X143760762Y-88900000D01*
X143760762Y-88900000D02*
X143998000Y-88662762D01*
X143998000Y-86469000D02*
X143998000Y-85344000D01*
D22*
X143412000Y-85344000D02*
X143998000Y-85344000D01*
X148524998Y-77463815D02*
X148524998Y-76925000D01*
X148524998Y-90235002D02*
X148524998Y-77463815D01*
X144780000Y-93980000D02*
X148524998Y-90235002D01*
X149010001Y-77717579D02*
X149600000Y-77127580D01*
X149860000Y-93980000D02*
X149010001Y-93130001D01*
X149010001Y-93130001D02*
X149010001Y-77717579D01*
X149600000Y-76588815D02*
X149600000Y-76050000D01*
X149600000Y-77127580D02*
X149600000Y-76588815D01*
X149775000Y-91355000D02*
X149775000Y-81763815D01*
X149775000Y-81763815D02*
X149775000Y-81225000D01*
X152400000Y-93980000D02*
X149775000Y-91355000D01*
X158250000Y-93050000D02*
X157580999Y-92380999D01*
X157580999Y-92380999D02*
X157200000Y-92000000D01*
X158250000Y-93980000D02*
X158250000Y-93050000D01*
X154800000Y-75850000D02*
X154800000Y-72297000D01*
X154800000Y-72297000D02*
X154766000Y-72263000D01*
X146350000Y-75875000D02*
X146350000Y-74600000D01*
X146350000Y-74600000D02*
X146050000Y-74300000D01*
X148570000Y-71120000D02*
X148570000Y-68549211D01*
X148570000Y-68549211D02*
X148793211Y-68326000D01*
X148793211Y-68326000D02*
X149470000Y-68326000D01*
X147400000Y-67300000D02*
X147400000Y-70075000D01*
X147400000Y-70075000D02*
X148445000Y-71120000D01*
X148445000Y-71120000D02*
X148570000Y-71120000D01*
X139850000Y-66000000D02*
X139850000Y-63750000D01*
X139850000Y-63750000D02*
X143600000Y-60000000D01*
X143600000Y-60000000D02*
X147350000Y-60000000D01*
X146050000Y-74300000D02*
X147706000Y-72644000D01*
X147706000Y-72644000D02*
X149098000Y-72644000D01*
X149098000Y-72644000D02*
X149098000Y-71648000D01*
X149098000Y-71648000D02*
X148570000Y-71120000D01*
X148082000Y-70886000D02*
X148570000Y-71374000D01*
X154866000Y-70104000D02*
X154766000Y-70104000D01*
X154766000Y-70104000D02*
X154666000Y-70104000D01*
X154666000Y-70104000D02*
X152888000Y-68326000D01*
X152888000Y-68326000D02*
X150274000Y-68326000D01*
X150274000Y-68326000D02*
X149470000Y-68326000D01*
X154766000Y-72263000D02*
X154766000Y-70104000D01*
X154706000Y-72323000D02*
X154766000Y-72263000D01*
D25*
X142240000Y-93980000D02*
X142240000Y-91200000D01*
X142240000Y-91200000D02*
X141290000Y-90250000D01*
X141290000Y-90250000D02*
X139760000Y-90250000D01*
X139760000Y-90250000D02*
X139700000Y-90190000D01*
D22*
X151256999Y-77089011D02*
X150876000Y-77470010D01*
X153289000Y-71227000D02*
X153289000Y-75057010D01*
X152166000Y-70104000D02*
X153289000Y-71227000D01*
X152066000Y-70104000D02*
X152166000Y-70104000D01*
X153289000Y-75057010D02*
X151256999Y-77089011D01*
X149470000Y-68826000D02*
X150614000Y-68826000D01*
X150614000Y-68826000D02*
X150622000Y-68834000D01*
X150622000Y-68834000D02*
X150696000Y-68834000D01*
X150696000Y-68834000D02*
X151966000Y-70104000D01*
X151966000Y-70104000D02*
X152066000Y-70104000D01*
X152066000Y-75010000D02*
X151256999Y-75819001D01*
X152066000Y-72263000D02*
X152066000Y-75010000D01*
X151256999Y-75819001D02*
X150876000Y-76200000D01*
X149470000Y-69326000D02*
X149470000Y-69767000D01*
X149470000Y-69767000D02*
X151966000Y-72263000D01*
X151966000Y-72263000D02*
X152066000Y-72263000D01*
X146350000Y-78575000D02*
X146350000Y-79175000D01*
X146350000Y-79175000D02*
X147350000Y-80175000D01*
X142000004Y-77986185D02*
X142000004Y-78525000D01*
X141999998Y-77986179D02*
X142000004Y-77986185D01*
X141999998Y-71192002D02*
X141999998Y-77986179D01*
X144366000Y-68826000D02*
X141999998Y-71192002D01*
X145170000Y-68826000D02*
X144366000Y-68826000D01*
D25*
X141290000Y-85552000D02*
X141290000Y-86487000D01*
X141290000Y-86487000D02*
X141290000Y-87550000D01*
D22*
X143190000Y-87550000D02*
X143190000Y-86516000D01*
X143190000Y-86516000D02*
X143113799Y-86439799D01*
X143113799Y-86439799D02*
X141337201Y-86439799D01*
X141337201Y-86439799D02*
X141290000Y-86487000D01*
D25*
X141498000Y-85344000D02*
X141290000Y-85552000D01*
X139319000Y-87860000D02*
X140980000Y-87860000D01*
X140980000Y-87860000D02*
X141290000Y-87550000D01*
D24*
X139319000Y-87860000D02*
X138200000Y-87860000D01*
X138200000Y-87860000D02*
X137160000Y-88900000D01*
D22*
X145970000Y-65278000D02*
X145970000Y-66182000D01*
X146507411Y-66747457D02*
X146507411Y-69439181D01*
X144516791Y-69783209D02*
X142961201Y-71338799D01*
X139130000Y-83820000D02*
X138264000Y-83820000D01*
X138264000Y-83820000D02*
X137160000Y-83820000D01*
X145970000Y-66182000D02*
X146500000Y-66712000D01*
X146500000Y-66712000D02*
X146500000Y-66740046D01*
X146500000Y-66740046D02*
X146507411Y-66747457D01*
X146507411Y-69439181D02*
X146163383Y-69783209D01*
X142961201Y-71338799D02*
X142961201Y-78713799D01*
X140347762Y-82625000D02*
X140325000Y-82625000D01*
X146163383Y-69783209D02*
X144516791Y-69783209D01*
X142961201Y-78713799D02*
X141525000Y-80150000D01*
X141525000Y-80150000D02*
X141525000Y-81447762D01*
X141525000Y-81447762D02*
X140347762Y-82625000D01*
X140325000Y-82625000D02*
X139130000Y-83820000D01*
D24*
X139319000Y-84860000D02*
X138200000Y-84860000D01*
X138200000Y-84860000D02*
X137160000Y-83820000D01*
D22*
X148670000Y-65278000D02*
X148670000Y-66526000D01*
X148670000Y-66526000D02*
X149470000Y-67326000D01*
X148670000Y-63246000D02*
X148670000Y-65278000D01*
X161290000Y-91440000D02*
X157549996Y-87699996D01*
X157338815Y-87699996D02*
X156800000Y-87699996D01*
X157549996Y-87699996D02*
X157338815Y-87699996D01*
X155400006Y-58000000D02*
X155400006Y-53800006D01*
X155400006Y-53800006D02*
X154940000Y-53340000D01*
X160950000Y-93980000D02*
X160950000Y-93076000D01*
X160950000Y-93076000D02*
X155800000Y-87926000D01*
X155800000Y-87926000D02*
X155800000Y-83600000D01*
X155800000Y-83600000D02*
X153180999Y-80980999D01*
X153180999Y-80980999D02*
X152800000Y-80600000D01*
X140614400Y-78458020D02*
X141528798Y-77543622D01*
X141528798Y-77543622D02*
X141528798Y-70074609D01*
X143777407Y-67826000D02*
X144366000Y-67826000D01*
X141528798Y-70074609D02*
X143777407Y-67826000D01*
X140614400Y-80518000D02*
X140614400Y-78458020D01*
X144366000Y-67826000D02*
X145170000Y-67826000D01*
X151558000Y-65278000D02*
X151558000Y-66542000D01*
X151558000Y-66542000D02*
X150274000Y-67826000D01*
X150274000Y-67826000D02*
X149470000Y-67826000D01*
X151558000Y-63246000D02*
X151558000Y-65278000D01*
X137160000Y-81280000D02*
X138557000Y-81280000D01*
X138557000Y-81280000D02*
X139319000Y-80518000D01*
X140360400Y-76504800D02*
X140360400Y-75250800D01*
X140360400Y-75250800D02*
X140925000Y-74686200D01*
X140925000Y-74686200D02*
X140925000Y-70010407D01*
X140925000Y-70010407D02*
X143609407Y-67326000D01*
X143609407Y-67326000D02*
X144366000Y-67326000D01*
X144366000Y-67326000D02*
X145170000Y-67326000D01*
X154258000Y-66182000D02*
X154258000Y-65278000D01*
X154258000Y-67458000D02*
X154258000Y-66182000D01*
X156388793Y-72841377D02*
X156388793Y-69588793D01*
X156400000Y-72852584D02*
X156388793Y-72841377D01*
X156400000Y-85114000D02*
X156400000Y-72852584D01*
X160186000Y-88900000D02*
X156400000Y-85114000D01*
X161290000Y-88900000D02*
X160186000Y-88900000D01*
X156388793Y-69588793D02*
X154258000Y-67458000D01*
X153000000Y-85288815D02*
X153000000Y-84750000D01*
X153000000Y-92040000D02*
X153000000Y-85288815D01*
X154940000Y-93980000D02*
X153000000Y-92040000D01*
X144375000Y-75850000D02*
X144375000Y-78725000D01*
X144375000Y-78725000D02*
X143900000Y-79200000D01*
X153900000Y-58000000D02*
X153900000Y-54840000D01*
X153900000Y-54840000D02*
X152400000Y-53340000D01*
X154800000Y-78550000D02*
X152850000Y-78550000D01*
X152850000Y-78550000D02*
X152800000Y-78600000D01*
G36*
X139827000Y-92563000D02*
X139847000Y-92563000D01*
X139847000Y-92817000D01*
X139827000Y-92817000D01*
X139827000Y-93916250D01*
X139985750Y-94075000D01*
X140451310Y-94075000D01*
X140684699Y-93978327D01*
X140742560Y-93920466D01*
X140742560Y-94540000D01*
X136600000Y-94540000D01*
X136600000Y-92937440D01*
X138010000Y-92937440D01*
X138245317Y-92893162D01*
X138440000Y-92767887D01*
X138440000Y-92817002D01*
X138598748Y-92817002D01*
X138440000Y-92975750D01*
X138440000Y-93566309D01*
X138536673Y-93799698D01*
X138715301Y-93978327D01*
X138948690Y-94075000D01*
X139414250Y-94075000D01*
X139573000Y-93916250D01*
X139573000Y-92817000D01*
X139553000Y-92817000D01*
X139553000Y-92563000D01*
X139573000Y-92563000D01*
X139573000Y-92543000D01*
X139827000Y-92543000D01*
X139827000Y-92563000D01*
X139827000Y-92563000D01*
G37*
X139827000Y-92563000D02*
X139847000Y-92563000D01*
X139847000Y-92817000D01*
X139827000Y-92817000D01*
X139827000Y-93916250D01*
X139985750Y-94075000D01*
X140451310Y-94075000D01*
X140684699Y-93978327D01*
X140742560Y-93920466D01*
X140742560Y-94540000D01*
X136600000Y-94540000D01*
X136600000Y-92937440D01*
X138010000Y-92937440D01*
X138245317Y-92893162D01*
X138440000Y-92767887D01*
X138440000Y-92817002D01*
X138598748Y-92817002D01*
X138440000Y-92975750D01*
X138440000Y-93566309D01*
X138536673Y-93799698D01*
X138715301Y-93978327D01*
X138948690Y-94075000D01*
X139414250Y-94075000D01*
X139573000Y-93916250D01*
X139573000Y-92817000D01*
X139553000Y-92817000D01*
X139553000Y-92563000D01*
X139573000Y-92563000D01*
X139573000Y-92543000D01*
X139827000Y-92543000D01*
X139827000Y-92563000D01*
G36*
X153502560Y-76600000D02*
X153546838Y-76835317D01*
X153685910Y-77051441D01*
X153898110Y-77196431D01*
X153911197Y-77199081D01*
X153698559Y-77335910D01*
X153553569Y-77548110D01*
X153504990Y-77788000D01*
X153425005Y-77788000D01*
X153376269Y-77739179D01*
X153002982Y-77584176D01*
X152598792Y-77583824D01*
X152225234Y-77738175D01*
X151939179Y-78023731D01*
X151784176Y-78397018D01*
X151783824Y-78801208D01*
X151938175Y-79174766D01*
X152223731Y-79460821D01*
X152559276Y-79600152D01*
X152225234Y-79738175D01*
X151939179Y-80023731D01*
X151784176Y-80397018D01*
X151783824Y-80801208D01*
X151938175Y-81174766D01*
X152223731Y-81460821D01*
X152597018Y-81615824D01*
X152738317Y-81615947D01*
X155038000Y-83915631D01*
X155038000Y-87926000D01*
X155096004Y-88217605D01*
X155220544Y-88403992D01*
X155261185Y-88464815D01*
X159713537Y-92917167D01*
X159603569Y-93078110D01*
X159600919Y-93091197D01*
X159464090Y-92878559D01*
X159251890Y-92733569D01*
X159000000Y-92682560D01*
X158903325Y-92682560D01*
X158896672Y-92672604D01*
X158788815Y-92511184D01*
X158216054Y-91938424D01*
X158216176Y-91798792D01*
X158061825Y-91425234D01*
X157776269Y-91139179D01*
X157402982Y-90984176D01*
X156998792Y-90983824D01*
X156625234Y-91138175D01*
X156339179Y-91423731D01*
X156184176Y-91797018D01*
X156183824Y-92201208D01*
X156338175Y-92574766D01*
X156623731Y-92860821D01*
X156957375Y-92999363D01*
X156903569Y-93078110D01*
X156852560Y-93330000D01*
X156852560Y-94540000D01*
X156319396Y-94540000D01*
X156425000Y-94009093D01*
X156425000Y-93950907D01*
X156311961Y-93382622D01*
X155990054Y-92900853D01*
X155508285Y-92578946D01*
X154940000Y-92465907D01*
X154575951Y-92538321D01*
X153762000Y-91724370D01*
X153762000Y-85424918D01*
X153860821Y-85326269D01*
X154015824Y-84952982D01*
X154016176Y-84548792D01*
X153861825Y-84175234D01*
X153576269Y-83889179D01*
X153202982Y-83734176D01*
X152798792Y-83733824D01*
X152425234Y-83888175D01*
X152139179Y-84173731D01*
X151984176Y-84547018D01*
X151983824Y-84951208D01*
X152138175Y-85324766D01*
X152238000Y-85424765D01*
X152238000Y-92040000D01*
X152296004Y-92331605D01*
X152387415Y-92468410D01*
X152035951Y-92538321D01*
X150537000Y-91039370D01*
X150537000Y-81899918D01*
X150635821Y-81801269D01*
X150790824Y-81427982D01*
X150791176Y-81023792D01*
X150636825Y-80650234D01*
X150351269Y-80364179D01*
X149977982Y-80209176D01*
X149772001Y-80208997D01*
X149772001Y-78033209D01*
X149939986Y-77865225D01*
X150014175Y-78044776D01*
X150299731Y-78330831D01*
X150673018Y-78485834D01*
X151077208Y-78486186D01*
X151450766Y-78331835D01*
X151736821Y-78046279D01*
X151891824Y-77672992D01*
X151891947Y-77531693D01*
X153502560Y-75921081D01*
X153502560Y-76600000D01*
X153502560Y-76600000D01*
G37*
X153502560Y-76600000D02*
X153546838Y-76835317D01*
X153685910Y-77051441D01*
X153898110Y-77196431D01*
X153911197Y-77199081D01*
X153698559Y-77335910D01*
X153553569Y-77548110D01*
X153504990Y-77788000D01*
X153425005Y-77788000D01*
X153376269Y-77739179D01*
X153002982Y-77584176D01*
X152598792Y-77583824D01*
X152225234Y-77738175D01*
X151939179Y-78023731D01*
X151784176Y-78397018D01*
X151783824Y-78801208D01*
X151938175Y-79174766D01*
X152223731Y-79460821D01*
X152559276Y-79600152D01*
X152225234Y-79738175D01*
X151939179Y-80023731D01*
X151784176Y-80397018D01*
X151783824Y-80801208D01*
X151938175Y-81174766D01*
X152223731Y-81460821D01*
X152597018Y-81615824D01*
X152738317Y-81615947D01*
X155038000Y-83915631D01*
X155038000Y-87926000D01*
X155096004Y-88217605D01*
X155220544Y-88403992D01*
X155261185Y-88464815D01*
X159713537Y-92917167D01*
X159603569Y-93078110D01*
X159600919Y-93091197D01*
X159464090Y-92878559D01*
X159251890Y-92733569D01*
X159000000Y-92682560D01*
X158903325Y-92682560D01*
X158896672Y-92672604D01*
X158788815Y-92511184D01*
X158216054Y-91938424D01*
X158216176Y-91798792D01*
X158061825Y-91425234D01*
X157776269Y-91139179D01*
X157402982Y-90984176D01*
X156998792Y-90983824D01*
X156625234Y-91138175D01*
X156339179Y-91423731D01*
X156184176Y-91797018D01*
X156183824Y-92201208D01*
X156338175Y-92574766D01*
X156623731Y-92860821D01*
X156957375Y-92999363D01*
X156903569Y-93078110D01*
X156852560Y-93330000D01*
X156852560Y-94540000D01*
X156319396Y-94540000D01*
X156425000Y-94009093D01*
X156425000Y-93950907D01*
X156311961Y-93382622D01*
X155990054Y-92900853D01*
X155508285Y-92578946D01*
X154940000Y-92465907D01*
X154575951Y-92538321D01*
X153762000Y-91724370D01*
X153762000Y-85424918D01*
X153860821Y-85326269D01*
X154015824Y-84952982D01*
X154016176Y-84548792D01*
X153861825Y-84175234D01*
X153576269Y-83889179D01*
X153202982Y-83734176D01*
X152798792Y-83733824D01*
X152425234Y-83888175D01*
X152139179Y-84173731D01*
X151984176Y-84547018D01*
X151983824Y-84951208D01*
X152138175Y-85324766D01*
X152238000Y-85424765D01*
X152238000Y-92040000D01*
X152296004Y-92331605D01*
X152387415Y-92468410D01*
X152035951Y-92538321D01*
X150537000Y-91039370D01*
X150537000Y-81899918D01*
X150635821Y-81801269D01*
X150790824Y-81427982D01*
X150791176Y-81023792D01*
X150636825Y-80650234D01*
X150351269Y-80364179D01*
X149977982Y-80209176D01*
X149772001Y-80208997D01*
X149772001Y-78033209D01*
X149939986Y-77865225D01*
X150014175Y-78044776D01*
X150299731Y-78330831D01*
X150673018Y-78485834D01*
X151077208Y-78486186D01*
X151450766Y-78331835D01*
X151736821Y-78046279D01*
X151891824Y-77672992D01*
X151891947Y-77531693D01*
X153502560Y-75921081D01*
X153502560Y-76600000D01*
G36*
X147447000Y-93853000D02*
X147467000Y-93853000D01*
X147467000Y-94107000D01*
X147447000Y-94107000D01*
X147447000Y-94127000D01*
X147193000Y-94127000D01*
X147193000Y-94107000D01*
X147173000Y-94107000D01*
X147173000Y-93853000D01*
X147193000Y-93853000D01*
X147193000Y-93833000D01*
X147447000Y-93833000D01*
X147447000Y-93853000D01*
X147447000Y-93853000D01*
G37*
X147447000Y-93853000D02*
X147467000Y-93853000D01*
X147467000Y-94107000D01*
X147447000Y-94107000D01*
X147447000Y-94127000D01*
X147193000Y-94127000D01*
X147193000Y-94107000D01*
X147173000Y-94107000D01*
X147173000Y-93853000D01*
X147193000Y-93853000D01*
X147193000Y-93833000D01*
X147447000Y-93833000D01*
X147447000Y-93853000D01*
G36*
X145052560Y-79325000D02*
X145096838Y-79560317D01*
X145235910Y-79776441D01*
X145448110Y-79921431D01*
X145700000Y-79972440D01*
X146069810Y-79972440D01*
X146333946Y-80236576D01*
X146333824Y-80376208D01*
X146488175Y-80749766D01*
X146773731Y-81035821D01*
X147147018Y-81190824D01*
X147551208Y-81191176D01*
X147762998Y-81103666D01*
X147762998Y-89919372D01*
X145144049Y-92538321D01*
X144780000Y-92465907D01*
X144211715Y-92578946D01*
X143729946Y-92900853D01*
X143702150Y-92942452D01*
X143693162Y-92894683D01*
X143554090Y-92678559D01*
X143341890Y-92533569D01*
X143225000Y-92509898D01*
X143225000Y-91677440D01*
X143515000Y-91677440D01*
X143750317Y-91633162D01*
X143966441Y-91494090D01*
X144111431Y-91281890D01*
X144162440Y-91030000D01*
X144162440Y-89470000D01*
X144118162Y-89234683D01*
X143979090Y-89018559D01*
X143803768Y-88898767D01*
X143966441Y-88794090D01*
X144111431Y-88581890D01*
X144162440Y-88330000D01*
X144162440Y-86770000D01*
X144125002Y-86571034D01*
X144125002Y-86445252D01*
X144283750Y-86604000D01*
X144874309Y-86604000D01*
X145107698Y-86507327D01*
X145286327Y-86328699D01*
X145383000Y-86095310D01*
X145383000Y-85629750D01*
X145224250Y-85471000D01*
X144125000Y-85471000D01*
X144125000Y-85491000D01*
X143871000Y-85491000D01*
X143871000Y-85471000D01*
X143851000Y-85471000D01*
X143851000Y-85217000D01*
X143871000Y-85217000D01*
X143871000Y-84242750D01*
X144125000Y-84242750D01*
X144125000Y-85217000D01*
X145224250Y-85217000D01*
X145383000Y-85058250D01*
X145383000Y-84592690D01*
X145286327Y-84359301D01*
X145107698Y-84180673D01*
X144874309Y-84084000D01*
X144283750Y-84084000D01*
X144125000Y-84242750D01*
X143871000Y-84242750D01*
X143712250Y-84084000D01*
X143121691Y-84084000D01*
X142888302Y-84180673D01*
X142747064Y-84321910D01*
X142712090Y-84267559D01*
X142499890Y-84122569D01*
X142248000Y-84071560D01*
X140748000Y-84071560D01*
X140512683Y-84115838D01*
X140330879Y-84232826D01*
X140283090Y-84158559D01*
X140070890Y-84013569D01*
X140049406Y-84009218D01*
X140030827Y-83996804D01*
X140817982Y-83209649D01*
X140886577Y-83163815D01*
X142063815Y-81986577D01*
X142065540Y-81983996D01*
X142228996Y-81739367D01*
X142287000Y-81447762D01*
X142287000Y-80465630D01*
X143020541Y-79732089D01*
X143038175Y-79774766D01*
X143323731Y-80060821D01*
X143697018Y-80215824D01*
X144101208Y-80216176D01*
X144474766Y-80061825D01*
X144760821Y-79776269D01*
X144915824Y-79402982D01*
X144915948Y-79260624D01*
X145052560Y-79056169D01*
X145052560Y-79325000D01*
X145052560Y-79325000D01*
G37*
X145052560Y-79325000D02*
X145096838Y-79560317D01*
X145235910Y-79776441D01*
X145448110Y-79921431D01*
X145700000Y-79972440D01*
X146069810Y-79972440D01*
X146333946Y-80236576D01*
X146333824Y-80376208D01*
X146488175Y-80749766D01*
X146773731Y-81035821D01*
X147147018Y-81190824D01*
X147551208Y-81191176D01*
X147762998Y-81103666D01*
X147762998Y-89919372D01*
X145144049Y-92538321D01*
X144780000Y-92465907D01*
X144211715Y-92578946D01*
X143729946Y-92900853D01*
X143702150Y-92942452D01*
X143693162Y-92894683D01*
X143554090Y-92678559D01*
X143341890Y-92533569D01*
X143225000Y-92509898D01*
X143225000Y-91677440D01*
X143515000Y-91677440D01*
X143750317Y-91633162D01*
X143966441Y-91494090D01*
X144111431Y-91281890D01*
X144162440Y-91030000D01*
X144162440Y-89470000D01*
X144118162Y-89234683D01*
X143979090Y-89018559D01*
X143803768Y-88898767D01*
X143966441Y-88794090D01*
X144111431Y-88581890D01*
X144162440Y-88330000D01*
X144162440Y-86770000D01*
X144125002Y-86571034D01*
X144125002Y-86445252D01*
X144283750Y-86604000D01*
X144874309Y-86604000D01*
X145107698Y-86507327D01*
X145286327Y-86328699D01*
X145383000Y-86095310D01*
X145383000Y-85629750D01*
X145224250Y-85471000D01*
X144125000Y-85471000D01*
X144125000Y-85491000D01*
X143871000Y-85491000D01*
X143871000Y-85471000D01*
X143851000Y-85471000D01*
X143851000Y-85217000D01*
X143871000Y-85217000D01*
X143871000Y-84242750D01*
X144125000Y-84242750D01*
X144125000Y-85217000D01*
X145224250Y-85217000D01*
X145383000Y-85058250D01*
X145383000Y-84592690D01*
X145286327Y-84359301D01*
X145107698Y-84180673D01*
X144874309Y-84084000D01*
X144283750Y-84084000D01*
X144125000Y-84242750D01*
X143871000Y-84242750D01*
X143712250Y-84084000D01*
X143121691Y-84084000D01*
X142888302Y-84180673D01*
X142747064Y-84321910D01*
X142712090Y-84267559D01*
X142499890Y-84122569D01*
X142248000Y-84071560D01*
X140748000Y-84071560D01*
X140512683Y-84115838D01*
X140330879Y-84232826D01*
X140283090Y-84158559D01*
X140070890Y-84013569D01*
X140049406Y-84009218D01*
X140030827Y-83996804D01*
X140817982Y-83209649D01*
X140886577Y-83163815D01*
X142063815Y-81986577D01*
X142065540Y-81983996D01*
X142228996Y-81739367D01*
X142287000Y-81447762D01*
X142287000Y-80465630D01*
X143020541Y-79732089D01*
X143038175Y-79774766D01*
X143323731Y-80060821D01*
X143697018Y-80215824D01*
X144101208Y-80216176D01*
X144474766Y-80061825D01*
X144760821Y-79776269D01*
X144915824Y-79402982D01*
X144915948Y-79260624D01*
X145052560Y-79056169D01*
X145052560Y-79325000D01*
G36*
X140965000Y-91677440D02*
X141255000Y-91677440D01*
X141255000Y-92507962D01*
X141154683Y-92526838D01*
X140960000Y-92652113D01*
X140960000Y-92562998D01*
X140801252Y-92562998D01*
X140960000Y-92404250D01*
X140960000Y-91813691D01*
X140897938Y-91663860D01*
X140965000Y-91677440D01*
X140965000Y-91677440D01*
G37*
X140965000Y-91677440D02*
X141255000Y-91677440D01*
X141255000Y-92507962D01*
X141154683Y-92526838D01*
X140960000Y-92652113D01*
X140960000Y-92562998D01*
X140801252Y-92562998D01*
X140960000Y-92404250D01*
X140960000Y-91813691D01*
X140897938Y-91663860D01*
X140965000Y-91677440D01*
G36*
X142261838Y-88565317D02*
X142367000Y-88728743D01*
X142367000Y-88806250D01*
X142506715Y-88945965D01*
X142413559Y-89005910D01*
X142268569Y-89218110D01*
X142240824Y-89355120D01*
X142218162Y-89234683D01*
X142079090Y-89018559D01*
X141973106Y-88946144D01*
X142113000Y-88806250D01*
X142113000Y-88725949D01*
X142211431Y-88581890D01*
X142239176Y-88444880D01*
X142261838Y-88565317D01*
X142261838Y-88565317D01*
G37*
X142261838Y-88565317D02*
X142367000Y-88728743D01*
X142367000Y-88806250D01*
X142506715Y-88945965D01*
X142413559Y-89005910D01*
X142268569Y-89218110D01*
X142240824Y-89355120D01*
X142218162Y-89234683D01*
X142079090Y-89018559D01*
X141973106Y-88946144D01*
X142113000Y-88806250D01*
X142113000Y-88725949D01*
X142211431Y-88581890D01*
X142239176Y-88444880D01*
X142261838Y-88565317D01*
G36*
X145835000Y-53054250D02*
X145993750Y-53213000D01*
X147193000Y-53213000D01*
X147193000Y-53193000D01*
X147447000Y-53193000D01*
X147447000Y-53213000D01*
X148646250Y-53213000D01*
X148805000Y-53054250D01*
X148805000Y-52780000D01*
X150902560Y-52780000D01*
X150902560Y-54190000D01*
X150946838Y-54425317D01*
X151085910Y-54641441D01*
X151298110Y-54786431D01*
X151550000Y-54837440D01*
X152819809Y-54837440D01*
X153138000Y-55155631D01*
X153138000Y-57325082D01*
X153039179Y-57423731D01*
X152884176Y-57797018D01*
X152883824Y-58201208D01*
X153038175Y-58574766D01*
X153323731Y-58860821D01*
X153697018Y-59015824D01*
X154101208Y-59016176D01*
X154474766Y-58861825D01*
X154650058Y-58686839D01*
X154823737Y-58860821D01*
X155197024Y-59015824D01*
X155601214Y-59016176D01*
X155974772Y-58861825D01*
X156260827Y-58576269D01*
X156415830Y-58202982D01*
X156416182Y-57798792D01*
X156261831Y-57425234D01*
X156162006Y-57325235D01*
X156162006Y-56165750D01*
X159805000Y-56165750D01*
X159805000Y-56856310D01*
X159901673Y-57089699D01*
X160080302Y-57268327D01*
X160313691Y-57365000D01*
X161004250Y-57365000D01*
X161163000Y-57206250D01*
X161163000Y-56007000D01*
X159963750Y-56007000D01*
X159805000Y-56165750D01*
X156162006Y-56165750D01*
X156162006Y-54705205D01*
X156241441Y-54654090D01*
X156386431Y-54441890D01*
X156437440Y-54190000D01*
X156437440Y-52780000D01*
X159792560Y-52780000D01*
X159792560Y-54190000D01*
X159836838Y-54425317D01*
X159958143Y-54613831D01*
X159901673Y-54670301D01*
X159805000Y-54903690D01*
X159805000Y-55594250D01*
X159963750Y-55753000D01*
X161163000Y-55753000D01*
X161163000Y-55733000D01*
X161417000Y-55733000D01*
X161417000Y-55753000D01*
X161437000Y-55753000D01*
X161437000Y-56007000D01*
X161417000Y-56007000D01*
X161417000Y-57206250D01*
X161575750Y-57365000D01*
X161850000Y-57365000D01*
X161850000Y-72162560D01*
X160440000Y-72162560D01*
X160204683Y-72206838D01*
X159988559Y-72345910D01*
X159843569Y-72558110D01*
X159792560Y-72810000D01*
X159792560Y-74510000D01*
X159836838Y-74745317D01*
X159957015Y-74932077D01*
X159843569Y-75098110D01*
X159792560Y-75350000D01*
X159792560Y-77050000D01*
X159836838Y-77285317D01*
X159957015Y-77472077D01*
X159843569Y-77638110D01*
X159792560Y-77890000D01*
X159792560Y-79590000D01*
X159836838Y-79825317D01*
X159957015Y-80012077D01*
X159843569Y-80178110D01*
X159792560Y-80430000D01*
X159792560Y-82130000D01*
X159836838Y-82365317D01*
X159958143Y-82553831D01*
X159901673Y-82610301D01*
X159805000Y-82843690D01*
X159805000Y-83534250D01*
X159963750Y-83693000D01*
X161163000Y-83693000D01*
X161163000Y-83673000D01*
X161417000Y-83673000D01*
X161417000Y-83693000D01*
X161437000Y-83693000D01*
X161437000Y-83947000D01*
X161417000Y-83947000D01*
X161417000Y-83967000D01*
X161163000Y-83967000D01*
X161163000Y-83947000D01*
X159963750Y-83947000D01*
X159805000Y-84105750D01*
X159805000Y-84796310D01*
X159901673Y-85029699D01*
X159959871Y-85087897D01*
X159843569Y-85258110D01*
X159792560Y-85510000D01*
X159792560Y-87210000D01*
X159836838Y-87445317D01*
X159887177Y-87523547D01*
X157162000Y-84798370D01*
X157162000Y-72852584D01*
X157150793Y-72796243D01*
X157150793Y-69588793D01*
X157092789Y-69297188D01*
X157063402Y-69253207D01*
X156927608Y-69049977D01*
X155020000Y-67142370D01*
X155020000Y-66573182D01*
X155243317Y-66531162D01*
X155459441Y-66392090D01*
X155604431Y-66179890D01*
X155655440Y-65928000D01*
X155655440Y-64628000D01*
X155611162Y-64392683D01*
X155532143Y-64269883D01*
X155546327Y-64255699D01*
X155643000Y-64022310D01*
X155643000Y-63531750D01*
X155484250Y-63373000D01*
X154385000Y-63373000D01*
X154385000Y-63393000D01*
X154131000Y-63393000D01*
X154131000Y-63373000D01*
X154111000Y-63373000D01*
X154111000Y-63119000D01*
X154131000Y-63119000D01*
X154131000Y-62119750D01*
X154385000Y-62119750D01*
X154385000Y-63119000D01*
X155484250Y-63119000D01*
X155643000Y-62960250D01*
X155643000Y-62469690D01*
X155546327Y-62236301D01*
X155367698Y-62057673D01*
X155134309Y-61961000D01*
X154543750Y-61961000D01*
X154385000Y-62119750D01*
X154131000Y-62119750D01*
X153972250Y-61961000D01*
X153381691Y-61961000D01*
X153148302Y-62057673D01*
X152969673Y-62236301D01*
X152913346Y-62372287D01*
X152911162Y-62360683D01*
X152772090Y-62144559D01*
X152559890Y-61999569D01*
X152308000Y-61948560D01*
X150808000Y-61948560D01*
X150572683Y-61992838D01*
X150356559Y-62131910D01*
X150211569Y-62344110D01*
X150160560Y-62596000D01*
X150160560Y-63896000D01*
X150204838Y-64131317D01*
X150289225Y-64262457D01*
X150211569Y-64376110D01*
X150160560Y-64628000D01*
X150160560Y-65928000D01*
X150204838Y-66163317D01*
X150343910Y-66379441D01*
X150521551Y-66500818D01*
X150358573Y-66663797D01*
X150271890Y-66604569D01*
X150020000Y-66553560D01*
X149775190Y-66553560D01*
X149714627Y-66492997D01*
X149871441Y-66392090D01*
X150016431Y-66179890D01*
X150067440Y-65928000D01*
X150067440Y-64628000D01*
X150023162Y-64392683D01*
X149938775Y-64261543D01*
X150016431Y-64147890D01*
X150067440Y-63896000D01*
X150067440Y-62596000D01*
X150023162Y-62360683D01*
X149884090Y-62144559D01*
X149671890Y-61999569D01*
X149420000Y-61948560D01*
X147920000Y-61948560D01*
X147684683Y-61992838D01*
X147468559Y-62131910D01*
X147323569Y-62344110D01*
X147316809Y-62377490D01*
X147258327Y-62236301D01*
X147079698Y-62057673D01*
X146846309Y-61961000D01*
X146255750Y-61961000D01*
X146097000Y-62119750D01*
X146097000Y-63119000D01*
X146117000Y-63119000D01*
X146117000Y-63373000D01*
X146097000Y-63373000D01*
X146097000Y-63393000D01*
X145843000Y-63393000D01*
X145843000Y-63373000D01*
X144743750Y-63373000D01*
X144585000Y-63531750D01*
X144585000Y-64022310D01*
X144681673Y-64255699D01*
X144696032Y-64270057D01*
X144623569Y-64376110D01*
X144572560Y-64628000D01*
X144572560Y-65928000D01*
X144616838Y-66163317D01*
X144755910Y-66379441D01*
X144968110Y-66524431D01*
X145111953Y-66553560D01*
X144620000Y-66553560D01*
X144564516Y-66564000D01*
X143609407Y-66564000D01*
X143317802Y-66622004D01*
X143218784Y-66688166D01*
X143070592Y-66787184D01*
X140386185Y-69471592D01*
X140221004Y-69718802D01*
X140163000Y-70010407D01*
X140163000Y-74370570D01*
X139821585Y-74711985D01*
X139781324Y-74772239D01*
X139723477Y-74783124D01*
X139691310Y-74769800D01*
X139350750Y-74769800D01*
X139192000Y-74928550D01*
X139192000Y-76377800D01*
X139212000Y-76377800D01*
X139212000Y-76631800D01*
X139192000Y-76631800D01*
X139192000Y-78081050D01*
X139350750Y-78239800D01*
X139691310Y-78239800D01*
X139726661Y-78225157D01*
X139860400Y-78252240D01*
X139893332Y-78252240D01*
X139852400Y-78458020D01*
X139852400Y-78740065D01*
X139707278Y-78767372D01*
X139565000Y-78738560D01*
X138565000Y-78738560D01*
X138329683Y-78782838D01*
X138113559Y-78921910D01*
X137968569Y-79134110D01*
X137917560Y-79386000D01*
X137917560Y-80015069D01*
X137757378Y-79908039D01*
X137189093Y-79795000D01*
X137130907Y-79795000D01*
X136600000Y-79900604D01*
X136600000Y-77546101D01*
X136803108Y-77641486D01*
X137033000Y-77520819D01*
X137033000Y-76327000D01*
X137013000Y-76327000D01*
X137013000Y-76073000D01*
X137033000Y-76073000D01*
X137033000Y-73787000D01*
X137287000Y-73787000D01*
X137287000Y-76073000D01*
X137307000Y-76073000D01*
X137307000Y-76327000D01*
X137287000Y-76327000D01*
X137287000Y-77520819D01*
X137516892Y-77641486D01*
X137930000Y-77447480D01*
X137930000Y-77731109D01*
X138026673Y-77964498D01*
X138205301Y-78143127D01*
X138438690Y-78239800D01*
X138779250Y-78239800D01*
X138938000Y-78081050D01*
X138938000Y-76631800D01*
X138918000Y-76631800D01*
X138918000Y-76377800D01*
X138938000Y-76377800D01*
X138938000Y-74928550D01*
X138779250Y-74769800D01*
X138438690Y-74769800D01*
X138205301Y-74866473D01*
X138053564Y-75018211D01*
X138041358Y-75004817D01*
X137882046Y-74930000D01*
X138041358Y-74855183D01*
X138431645Y-74426924D01*
X138601476Y-74016890D01*
X138480155Y-73787000D01*
X137287000Y-73787000D01*
X137033000Y-73787000D01*
X137013000Y-73787000D01*
X137013000Y-73533000D01*
X137033000Y-73533000D01*
X137033000Y-72339181D01*
X137287000Y-72339181D01*
X137287000Y-73533000D01*
X138480155Y-73533000D01*
X138601476Y-73303110D01*
X138431645Y-72893076D01*
X138041358Y-72464817D01*
X137516892Y-72218514D01*
X137287000Y-72339181D01*
X137033000Y-72339181D01*
X136803108Y-72218514D01*
X136600000Y-72313899D01*
X136600000Y-66201208D01*
X138833824Y-66201208D01*
X138988175Y-66574766D01*
X139273731Y-66860821D01*
X139647018Y-67015824D01*
X140051208Y-67016176D01*
X140424766Y-66861825D01*
X140710821Y-66576269D01*
X140865824Y-66202982D01*
X140866176Y-65798792D01*
X140711825Y-65425234D01*
X140612000Y-65325235D01*
X140612000Y-64065630D01*
X142207940Y-62469690D01*
X144585000Y-62469690D01*
X144585000Y-62960250D01*
X144743750Y-63119000D01*
X145843000Y-63119000D01*
X145843000Y-62119750D01*
X145684250Y-61961000D01*
X145093691Y-61961000D01*
X144860302Y-62057673D01*
X144681673Y-62236301D01*
X144585000Y-62469690D01*
X142207940Y-62469690D01*
X143915630Y-60762000D01*
X146675082Y-60762000D01*
X146773731Y-60860821D01*
X147147018Y-61015824D01*
X147551208Y-61016176D01*
X147924766Y-60861825D01*
X148210821Y-60576269D01*
X148365824Y-60202982D01*
X148366176Y-59798792D01*
X148211825Y-59425234D01*
X147926269Y-59139179D01*
X147552982Y-58984176D01*
X147148792Y-58983824D01*
X146775234Y-59138175D01*
X146675235Y-59238000D01*
X143600000Y-59238000D01*
X143308395Y-59296004D01*
X143061185Y-59461185D01*
X139311185Y-63211185D01*
X139146004Y-63458395D01*
X139088000Y-63750000D01*
X139088000Y-65325082D01*
X138989179Y-65423731D01*
X138834176Y-65797018D01*
X138833824Y-66201208D01*
X136600000Y-66201208D01*
X136600000Y-53625750D01*
X145835000Y-53625750D01*
X145835000Y-54316310D01*
X145931673Y-54549699D01*
X146110302Y-54728327D01*
X146343691Y-54825000D01*
X147034250Y-54825000D01*
X147193000Y-54666250D01*
X147193000Y-53467000D01*
X147447000Y-53467000D01*
X147447000Y-54666250D01*
X147605750Y-54825000D01*
X148296309Y-54825000D01*
X148529698Y-54728327D01*
X148708327Y-54549699D01*
X148805000Y-54316310D01*
X148805000Y-53625750D01*
X148646250Y-53467000D01*
X147447000Y-53467000D01*
X147193000Y-53467000D01*
X145993750Y-53467000D01*
X145835000Y-53625750D01*
X136600000Y-53625750D01*
X136600000Y-52780000D01*
X145835000Y-52780000D01*
X145835000Y-53054250D01*
X145835000Y-53054250D01*
G37*
X145835000Y-53054250D02*
X145993750Y-53213000D01*
X147193000Y-53213000D01*
X147193000Y-53193000D01*
X147447000Y-53193000D01*
X147447000Y-53213000D01*
X148646250Y-53213000D01*
X148805000Y-53054250D01*
X148805000Y-52780000D01*
X150902560Y-52780000D01*
X150902560Y-54190000D01*
X150946838Y-54425317D01*
X151085910Y-54641441D01*
X151298110Y-54786431D01*
X151550000Y-54837440D01*
X152819809Y-54837440D01*
X153138000Y-55155631D01*
X153138000Y-57325082D01*
X153039179Y-57423731D01*
X152884176Y-57797018D01*
X152883824Y-58201208D01*
X153038175Y-58574766D01*
X153323731Y-58860821D01*
X153697018Y-59015824D01*
X154101208Y-59016176D01*
X154474766Y-58861825D01*
X154650058Y-58686839D01*
X154823737Y-58860821D01*
X155197024Y-59015824D01*
X155601214Y-59016176D01*
X155974772Y-58861825D01*
X156260827Y-58576269D01*
X156415830Y-58202982D01*
X156416182Y-57798792D01*
X156261831Y-57425234D01*
X156162006Y-57325235D01*
X156162006Y-56165750D01*
X159805000Y-56165750D01*
X159805000Y-56856310D01*
X159901673Y-57089699D01*
X160080302Y-57268327D01*
X160313691Y-57365000D01*
X161004250Y-57365000D01*
X161163000Y-57206250D01*
X161163000Y-56007000D01*
X159963750Y-56007000D01*
X159805000Y-56165750D01*
X156162006Y-56165750D01*
X156162006Y-54705205D01*
X156241441Y-54654090D01*
X156386431Y-54441890D01*
X156437440Y-54190000D01*
X156437440Y-52780000D01*
X159792560Y-52780000D01*
X159792560Y-54190000D01*
X159836838Y-54425317D01*
X159958143Y-54613831D01*
X159901673Y-54670301D01*
X159805000Y-54903690D01*
X159805000Y-55594250D01*
X159963750Y-55753000D01*
X161163000Y-55753000D01*
X161163000Y-55733000D01*
X161417000Y-55733000D01*
X161417000Y-55753000D01*
X161437000Y-55753000D01*
X161437000Y-56007000D01*
X161417000Y-56007000D01*
X161417000Y-57206250D01*
X161575750Y-57365000D01*
X161850000Y-57365000D01*
X161850000Y-72162560D01*
X160440000Y-72162560D01*
X160204683Y-72206838D01*
X159988559Y-72345910D01*
X159843569Y-72558110D01*
X159792560Y-72810000D01*
X159792560Y-74510000D01*
X159836838Y-74745317D01*
X159957015Y-74932077D01*
X159843569Y-75098110D01*
X159792560Y-75350000D01*
X159792560Y-77050000D01*
X159836838Y-77285317D01*
X159957015Y-77472077D01*
X159843569Y-77638110D01*
X159792560Y-77890000D01*
X159792560Y-79590000D01*
X159836838Y-79825317D01*
X159957015Y-80012077D01*
X159843569Y-80178110D01*
X159792560Y-80430000D01*
X159792560Y-82130000D01*
X159836838Y-82365317D01*
X159958143Y-82553831D01*
X159901673Y-82610301D01*
X159805000Y-82843690D01*
X159805000Y-83534250D01*
X159963750Y-83693000D01*
X161163000Y-83693000D01*
X161163000Y-83673000D01*
X161417000Y-83673000D01*
X161417000Y-83693000D01*
X161437000Y-83693000D01*
X161437000Y-83947000D01*
X161417000Y-83947000D01*
X161417000Y-83967000D01*
X161163000Y-83967000D01*
X161163000Y-83947000D01*
X159963750Y-83947000D01*
X159805000Y-84105750D01*
X159805000Y-84796310D01*
X159901673Y-85029699D01*
X159959871Y-85087897D01*
X159843569Y-85258110D01*
X159792560Y-85510000D01*
X159792560Y-87210000D01*
X159836838Y-87445317D01*
X159887177Y-87523547D01*
X157162000Y-84798370D01*
X157162000Y-72852584D01*
X157150793Y-72796243D01*
X157150793Y-69588793D01*
X157092789Y-69297188D01*
X157063402Y-69253207D01*
X156927608Y-69049977D01*
X155020000Y-67142370D01*
X155020000Y-66573182D01*
X155243317Y-66531162D01*
X155459441Y-66392090D01*
X155604431Y-66179890D01*
X155655440Y-65928000D01*
X155655440Y-64628000D01*
X155611162Y-64392683D01*
X155532143Y-64269883D01*
X155546327Y-64255699D01*
X155643000Y-64022310D01*
X155643000Y-63531750D01*
X155484250Y-63373000D01*
X154385000Y-63373000D01*
X154385000Y-63393000D01*
X154131000Y-63393000D01*
X154131000Y-63373000D01*
X154111000Y-63373000D01*
X154111000Y-63119000D01*
X154131000Y-63119000D01*
X154131000Y-62119750D01*
X154385000Y-62119750D01*
X154385000Y-63119000D01*
X155484250Y-63119000D01*
X155643000Y-62960250D01*
X155643000Y-62469690D01*
X155546327Y-62236301D01*
X155367698Y-62057673D01*
X155134309Y-61961000D01*
X154543750Y-61961000D01*
X154385000Y-62119750D01*
X154131000Y-62119750D01*
X153972250Y-61961000D01*
X153381691Y-61961000D01*
X153148302Y-62057673D01*
X152969673Y-62236301D01*
X152913346Y-62372287D01*
X152911162Y-62360683D01*
X152772090Y-62144559D01*
X152559890Y-61999569D01*
X152308000Y-61948560D01*
X150808000Y-61948560D01*
X150572683Y-61992838D01*
X150356559Y-62131910D01*
X150211569Y-62344110D01*
X150160560Y-62596000D01*
X150160560Y-63896000D01*
X150204838Y-64131317D01*
X150289225Y-64262457D01*
X150211569Y-64376110D01*
X150160560Y-64628000D01*
X150160560Y-65928000D01*
X150204838Y-66163317D01*
X150343910Y-66379441D01*
X150521551Y-66500818D01*
X150358573Y-66663797D01*
X150271890Y-66604569D01*
X150020000Y-66553560D01*
X149775190Y-66553560D01*
X149714627Y-66492997D01*
X149871441Y-66392090D01*
X150016431Y-66179890D01*
X150067440Y-65928000D01*
X150067440Y-64628000D01*
X150023162Y-64392683D01*
X149938775Y-64261543D01*
X150016431Y-64147890D01*
X150067440Y-63896000D01*
X150067440Y-62596000D01*
X150023162Y-62360683D01*
X149884090Y-62144559D01*
X149671890Y-61999569D01*
X149420000Y-61948560D01*
X147920000Y-61948560D01*
X147684683Y-61992838D01*
X147468559Y-62131910D01*
X147323569Y-62344110D01*
X147316809Y-62377490D01*
X147258327Y-62236301D01*
X147079698Y-62057673D01*
X146846309Y-61961000D01*
X146255750Y-61961000D01*
X146097000Y-62119750D01*
X146097000Y-63119000D01*
X146117000Y-63119000D01*
X146117000Y-63373000D01*
X146097000Y-63373000D01*
X146097000Y-63393000D01*
X145843000Y-63393000D01*
X145843000Y-63373000D01*
X144743750Y-63373000D01*
X144585000Y-63531750D01*
X144585000Y-64022310D01*
X144681673Y-64255699D01*
X144696032Y-64270057D01*
X144623569Y-64376110D01*
X144572560Y-64628000D01*
X144572560Y-65928000D01*
X144616838Y-66163317D01*
X144755910Y-66379441D01*
X144968110Y-66524431D01*
X145111953Y-66553560D01*
X144620000Y-66553560D01*
X144564516Y-66564000D01*
X143609407Y-66564000D01*
X143317802Y-66622004D01*
X143218784Y-66688166D01*
X143070592Y-66787184D01*
X140386185Y-69471592D01*
X140221004Y-69718802D01*
X140163000Y-70010407D01*
X140163000Y-74370570D01*
X139821585Y-74711985D01*
X139781324Y-74772239D01*
X139723477Y-74783124D01*
X139691310Y-74769800D01*
X139350750Y-74769800D01*
X139192000Y-74928550D01*
X139192000Y-76377800D01*
X139212000Y-76377800D01*
X139212000Y-76631800D01*
X139192000Y-76631800D01*
X139192000Y-78081050D01*
X139350750Y-78239800D01*
X139691310Y-78239800D01*
X139726661Y-78225157D01*
X139860400Y-78252240D01*
X139893332Y-78252240D01*
X139852400Y-78458020D01*
X139852400Y-78740065D01*
X139707278Y-78767372D01*
X139565000Y-78738560D01*
X138565000Y-78738560D01*
X138329683Y-78782838D01*
X138113559Y-78921910D01*
X137968569Y-79134110D01*
X137917560Y-79386000D01*
X137917560Y-80015069D01*
X137757378Y-79908039D01*
X137189093Y-79795000D01*
X137130907Y-79795000D01*
X136600000Y-79900604D01*
X136600000Y-77546101D01*
X136803108Y-77641486D01*
X137033000Y-77520819D01*
X137033000Y-76327000D01*
X137013000Y-76327000D01*
X137013000Y-76073000D01*
X137033000Y-76073000D01*
X137033000Y-73787000D01*
X137287000Y-73787000D01*
X137287000Y-76073000D01*
X137307000Y-76073000D01*
X137307000Y-76327000D01*
X137287000Y-76327000D01*
X137287000Y-77520819D01*
X137516892Y-77641486D01*
X137930000Y-77447480D01*
X137930000Y-77731109D01*
X138026673Y-77964498D01*
X138205301Y-78143127D01*
X138438690Y-78239800D01*
X138779250Y-78239800D01*
X138938000Y-78081050D01*
X138938000Y-76631800D01*
X138918000Y-76631800D01*
X138918000Y-76377800D01*
X138938000Y-76377800D01*
X138938000Y-74928550D01*
X138779250Y-74769800D01*
X138438690Y-74769800D01*
X138205301Y-74866473D01*
X138053564Y-75018211D01*
X138041358Y-75004817D01*
X137882046Y-74930000D01*
X138041358Y-74855183D01*
X138431645Y-74426924D01*
X138601476Y-74016890D01*
X138480155Y-73787000D01*
X137287000Y-73787000D01*
X137033000Y-73787000D01*
X137013000Y-73787000D01*
X137013000Y-73533000D01*
X137033000Y-73533000D01*
X137033000Y-72339181D01*
X137287000Y-72339181D01*
X137287000Y-73533000D01*
X138480155Y-73533000D01*
X138601476Y-73303110D01*
X138431645Y-72893076D01*
X138041358Y-72464817D01*
X137516892Y-72218514D01*
X137287000Y-72339181D01*
X137033000Y-72339181D01*
X136803108Y-72218514D01*
X136600000Y-72313899D01*
X136600000Y-66201208D01*
X138833824Y-66201208D01*
X138988175Y-66574766D01*
X139273731Y-66860821D01*
X139647018Y-67015824D01*
X140051208Y-67016176D01*
X140424766Y-66861825D01*
X140710821Y-66576269D01*
X140865824Y-66202982D01*
X140866176Y-65798792D01*
X140711825Y-65425234D01*
X140612000Y-65325235D01*
X140612000Y-64065630D01*
X142207940Y-62469690D01*
X144585000Y-62469690D01*
X144585000Y-62960250D01*
X144743750Y-63119000D01*
X145843000Y-63119000D01*
X145843000Y-62119750D01*
X145684250Y-61961000D01*
X145093691Y-61961000D01*
X144860302Y-62057673D01*
X144681673Y-62236301D01*
X144585000Y-62469690D01*
X142207940Y-62469690D01*
X143915630Y-60762000D01*
X146675082Y-60762000D01*
X146773731Y-60860821D01*
X147147018Y-61015824D01*
X147551208Y-61016176D01*
X147924766Y-60861825D01*
X148210821Y-60576269D01*
X148365824Y-60202982D01*
X148366176Y-59798792D01*
X148211825Y-59425234D01*
X147926269Y-59139179D01*
X147552982Y-58984176D01*
X147148792Y-58983824D01*
X146775234Y-59138175D01*
X146675235Y-59238000D01*
X143600000Y-59238000D01*
X143308395Y-59296004D01*
X143061185Y-59461185D01*
X139311185Y-63211185D01*
X139146004Y-63458395D01*
X139088000Y-63750000D01*
X139088000Y-65325082D01*
X138989179Y-65423731D01*
X138834176Y-65797018D01*
X138833824Y-66201208D01*
X136600000Y-66201208D01*
X136600000Y-53625750D01*
X145835000Y-53625750D01*
X145835000Y-54316310D01*
X145931673Y-54549699D01*
X146110302Y-54728327D01*
X146343691Y-54825000D01*
X147034250Y-54825000D01*
X147193000Y-54666250D01*
X147193000Y-53467000D01*
X147447000Y-53467000D01*
X147447000Y-54666250D01*
X147605750Y-54825000D01*
X148296309Y-54825000D01*
X148529698Y-54728327D01*
X148708327Y-54549699D01*
X148805000Y-54316310D01*
X148805000Y-53625750D01*
X148646250Y-53467000D01*
X147447000Y-53467000D01*
X147193000Y-53467000D01*
X145993750Y-53467000D01*
X145835000Y-53625750D01*
X136600000Y-53625750D01*
X136600000Y-52780000D01*
X145835000Y-52780000D01*
X145835000Y-53054250D01*
G36*
X144685000Y-70834250D02*
X144843750Y-70993000D01*
X145943000Y-70993000D01*
X145943000Y-70973000D01*
X146197000Y-70973000D01*
X146197000Y-70993000D01*
X146217000Y-70993000D01*
X146217000Y-71247000D01*
X146197000Y-71247000D01*
X146197000Y-72221250D01*
X146355750Y-72380000D01*
X146892369Y-72380000D01*
X145988424Y-73283946D01*
X145848792Y-73283824D01*
X145607694Y-73383444D01*
X145501250Y-73277000D01*
X144502000Y-73277000D01*
X144502000Y-73297000D01*
X144248000Y-73297000D01*
X144248000Y-73277000D01*
X144228000Y-73277000D01*
X144228000Y-73023000D01*
X144248000Y-73023000D01*
X144248000Y-71923750D01*
X144502000Y-71923750D01*
X144502000Y-73023000D01*
X145501250Y-73023000D01*
X145660000Y-72864250D01*
X145660000Y-72380000D01*
X145784250Y-72380000D01*
X145943000Y-72221250D01*
X145943000Y-71247000D01*
X144843750Y-71247000D01*
X144685000Y-71405750D01*
X144685000Y-71765000D01*
X144660750Y-71765000D01*
X144502000Y-71923750D01*
X144248000Y-71923750D01*
X144089250Y-71765000D01*
X143723201Y-71765000D01*
X143723201Y-71654429D01*
X144685000Y-70692631D01*
X144685000Y-70834250D01*
X144685000Y-70834250D01*
G37*
X144685000Y-70834250D02*
X144843750Y-70993000D01*
X145943000Y-70993000D01*
X145943000Y-70973000D01*
X146197000Y-70973000D01*
X146197000Y-70993000D01*
X146217000Y-70993000D01*
X146217000Y-71247000D01*
X146197000Y-71247000D01*
X146197000Y-72221250D01*
X146355750Y-72380000D01*
X146892369Y-72380000D01*
X145988424Y-73283946D01*
X145848792Y-73283824D01*
X145607694Y-73383444D01*
X145501250Y-73277000D01*
X144502000Y-73277000D01*
X144502000Y-73297000D01*
X144248000Y-73297000D01*
X144248000Y-73277000D01*
X144228000Y-73277000D01*
X144228000Y-73023000D01*
X144248000Y-73023000D01*
X144248000Y-71923750D01*
X144502000Y-71923750D01*
X144502000Y-73023000D01*
X145501250Y-73023000D01*
X145660000Y-72864250D01*
X145660000Y-72380000D01*
X145784250Y-72380000D01*
X145943000Y-72221250D01*
X145943000Y-71247000D01*
X144843750Y-71247000D01*
X144685000Y-71405750D01*
X144685000Y-71765000D01*
X144660750Y-71765000D01*
X144502000Y-71923750D01*
X144248000Y-71923750D01*
X144089250Y-71765000D01*
X143723201Y-71765000D01*
X143723201Y-71654429D01*
X144685000Y-70692631D01*
X144685000Y-70834250D01*
M02*
