G04 #@! TF.FileFunction,Soldermask,Bot*
%FSLAX46Y46*%
G04 Gerber Fmt 4.6, Leading zero omitted, Abs format (unit mm)*
G04 Created by KiCad (PCBNEW 4.0.6) date Monday, 03 July 2017 'AMt' 11:17:00*
%MOMM*%
%LPD*%
G01*
G04 APERTURE LIST*
%ADD10C,0.101600*%
%ADD11R,1.240000X0.390000*%
%ADD12R,2.100000X2.100000*%
%ADD13O,2.100000X2.100000*%
%ADD14R,1.900000X1.700000*%
%ADD15R,1.900000X1.650000*%
%ADD16R,1.650000X1.900000*%
%ADD17R,1.700000X1.900000*%
%ADD18R,0.790000X1.700000*%
%ADD19R,1.400000X1.400000*%
%ADD20R,1.400000X2.600000*%
G04 APERTURE END LIST*
D10*
D11*
X145170000Y-69326000D03*
X145170000Y-68826000D03*
X145170000Y-68326000D03*
X145170000Y-67826000D03*
X145170000Y-67326000D03*
X149470000Y-67326000D03*
X149470000Y-67826000D03*
X149470000Y-68326000D03*
X149470000Y-68826000D03*
X149470000Y-69326000D03*
D12*
X142240000Y-93980000D03*
D13*
X144780000Y-93980000D03*
X147320000Y-93980000D03*
X149860000Y-93980000D03*
X152400000Y-93980000D03*
X154940000Y-93980000D03*
D14*
X160950000Y-93980000D03*
X158250000Y-93980000D03*
D15*
X141498000Y-85344000D03*
X143998000Y-85344000D03*
D16*
X139700000Y-90190000D03*
X139700000Y-92690000D03*
D15*
X148570000Y-71120000D03*
X146070000Y-71120000D03*
D17*
X144375000Y-75850000D03*
X144375000Y-73150000D03*
D14*
X154766000Y-70104000D03*
X152066000Y-70104000D03*
X154766000Y-72263000D03*
X152066000Y-72263000D03*
D18*
X141290000Y-87550000D03*
X142240000Y-87550000D03*
X143190000Y-87550000D03*
X143190000Y-90250000D03*
X141290000Y-90250000D03*
D12*
X137160000Y-83820000D03*
D13*
X137160000Y-81280000D03*
D14*
X145970000Y-65278000D03*
X148670000Y-65278000D03*
X148670000Y-63246000D03*
X145970000Y-63246000D03*
X151558000Y-65278000D03*
X154258000Y-65278000D03*
X151558000Y-63246000D03*
X154258000Y-63246000D03*
D12*
X154940000Y-53340000D03*
X161290000Y-55880000D03*
D19*
X139319000Y-87610000D03*
X139319000Y-85110000D03*
D12*
X161290000Y-73660000D03*
X161290000Y-76200000D03*
X161290000Y-78740000D03*
X161290000Y-88900000D03*
D13*
X161290000Y-91440000D03*
D12*
X147320000Y-53340000D03*
X161290000Y-83820000D03*
X137160000Y-91440000D03*
D13*
X137160000Y-73660000D03*
D12*
X137160000Y-88900000D03*
D13*
X137160000Y-76200000D03*
D12*
X152400000Y-53340000D03*
D17*
X146350000Y-75875000D03*
X146350000Y-78575000D03*
D12*
X161290000Y-81280000D03*
D17*
X154800000Y-75850000D03*
X154800000Y-78550000D03*
D12*
X161290000Y-86360000D03*
X161290000Y-53340000D03*
D20*
X139065000Y-76504800D03*
X139065000Y-80486000D03*
X140360400Y-80486000D03*
X140360400Y-76504800D03*
M02*
